<?xml version="1.0" encoding="utf-8"?>
<!--Designed by Vexels.com - 2017 All Rights Reserved - https://vexels.com/terms-and-conditions/-->
<svg version="1.1" id="Layer_1" xmlns="http://www.w3.org/2000/svg" xmlns:xlink="http://www.w3.org/1999/xlink" x="0px" y="0px"
	 viewBox="0 0 1200 1200" enable-background="new 0 0 1200 1200" xml:space="preserve">
<g>
	<linearGradient id="SVGID_1_" gradientUnits="userSpaceOnUse" x1="233.4745" y1="233.4745" x2="1250.6172" y2="1250.6172">
		<stop  offset="0" style="stop-color:#FDF440"/>
		<stop  offset="0.2586" style="stop-color:#F94A2F"/>
		<stop  offset="0.3244" style="stop-color:#F74734"/>
		<stop  offset="0.3992" style="stop-color:#F13D41"/>
		<stop  offset="0.4781" style="stop-color:#E72E58"/>
		<stop  offset="0.5538" style="stop-color:#DA1A75"/>
		<stop  offset="1" style="stop-color:#2B4AE2"/>
	</linearGradient>
	<circle fill="url(#SVGID_1_)" cx="600" cy="600" r="550"/>
	<path fill="#FFFFFF" d="M901.27,381.409c-16.841-39.132-54.619-88.324-138.956-100.454
		c-77.909-11.219-132.895,36.587-162.899,73.464c-29.57-36.856-83.861-84.406-161.736-73.216
		c-84.365,12.134-122.143,61.312-138.977,100.427c-35.403,82.263-9.483,188.203,34.418,250.338
		c45.657,64.62,236.878,259.164,244.996,267.412l20.989,21.332l21.076-21.245c8.185-8.252,201.001-202.831,246.693-267.497
		C910.797,569.801,936.716,463.774,901.27,381.409z M818.579,597.846c-34.42,48.714-167.259,185.516-219.305,238.576
		c-51.703-53.132-183.432-189.847-217.862-238.576c-34.028-48.16-53.953-133.46-28.397-192.841
		c15.795-36.701,47.112-58.663,93.08-65.275c4.609-0.662,9.107-0.974,13.497-0.974c70.7,0,112.756,80.96,113.159,81.752
		l26.09,52.105l26.642-51.825c0.477-0.929,48.671-92.787,128.411-81.304c45.945,6.608,77.255,28.579,93.058,65.302
		C872.553,464.265,852.629,549.655,818.579,597.846z"/>
</g>
</svg>
