<?xml version="1.0" encoding="utf-8"?>
<!-- Designed by Vexels.com - 2019 All Rights Reserved - https://vexels.com/terms-and-conditions/  -->
<svg version="1.1" id="Layer_1" xmlns="http://www.w3.org/2000/svg" xmlns:xlink="http://www.w3.org/1999/xlink" x="0px" y="0px"
	 viewBox="0 0 1200 1200" enable-background="new 0 0 1200 1200" xml:space="preserve">
<g>
	<g>
		<path fill="#14327D" d="M609.845,627.276c-115.528-43.98-228.03-93.245-314.125-188.643
			c47.522-83.018,95.044-166.036,142.565-249.054c86.095,95.398,198.598,144.662,314.125,188.643
			C704.888,461.241,657.366,544.258,609.845,627.276z"/>
		<path fill="#D82837" d="M1120.743,662.904C1012.379,542.83,862.178,495.843,716.769,440.486
			c11.88-20.755,23.761-41.509,35.641-62.263c139.212,52.997,282.815,98.323,389.893,207.455c8.474,8.637,10.116,21.889,4.105,32.39
			C1137.853,633.013,1129.298,647.958,1120.743,662.904z"/>
		<path fill="#C3EAFC" d="M1085.101,725.167C976.737,605.094,826.537,558.107,681.128,502.75
			c11.88-20.755,23.761-41.509,35.641-62.263c145.41,55.357,295.61,102.344,403.974,222.417
			C1108.862,683.658,1096.982,704.413,1085.101,725.167z"/>
		<path fill="#D82837" d="M1049.46,787.43C941.096,667.357,790.896,620.37,645.486,565.013
			c11.88-20.755,23.761-41.509,35.642-62.263c145.41,55.357,295.609,102.344,403.974,222.418
			C1073.221,745.921,1061.34,766.676,1049.46,787.43z"/>
		<path fill="#C3EAFC" d="M1013.819,849.694C905.455,729.62,755.254,682.633,609.845,627.276
			c11.88-20.755,23.761-41.509,35.641-62.263c145.41,55.357,295.61,102.344,403.974,222.417
			C1037.58,808.185,1025.699,828.94,1013.819,849.694z"/>
		<path fill="#D82837" d="M978.177,911.957c-194.458-215.472-523.641-195.588-718.099-411.06
			c11.881-20.754,23.761-41.509,35.642-62.263c194.458,215.472,523.641,195.589,718.099,411.06
			C1001.938,870.448,990.058,891.203,978.177,911.957z"/>
		<path fill="#C3EAFC" d="M942.536,974.221c-194.458-215.472-523.64-195.588-718.099-411.06
			c11.88-20.755,23.761-41.509,35.641-62.263c194.459,215.472,523.641,195.588,718.099,411.06
			C966.297,932.712,954.416,953.466,942.536,974.221z"/>
		<path fill="#D82837" d="M882.464,1011.278C685.826,822.242,375.328,832.113,188.796,625.424
			c11.88-20.754,23.761-41.509,35.641-62.263c194.458,215.472,523.641,195.588,718.099,411.06
			c-5.918,10.338-11.836,20.676-17.754,31.015C916.012,1020.556,895.19,1023.512,882.464,1011.278z"/>
		<g>
			<g>
				<g>
					<path fill="#C3EAFC" d="M464.888,264.549c-0.55,5.663-1.092,11.31-1.626,16.945c-0.059,0.63,0.152,1.279,0.564,1.732
						c3.694,4.06,7.428,8.05,11.2,11.973c1.064,1.104,0.633,3.036-0.729,3.274c-4.836,0.841-9.652,1.648-14.447,2.417
						c-0.537,0.087-0.982,0.476-1.193,1.046c-1.884,5.088-3.768,10.174-5.65,15.258c-0.53,1.43-2.295,1.42-2.982-0.026
						c-2.444-5.135-4.855-10.326-7.233-15.574c-0.266-0.587-0.745-1.004-1.284-1.116c-4.811-0.999-9.588-2.056-14.33-3.174
						c-1.335-0.314-1.936-2.36-1.019-3.456c3.254-3.889,6.51-7.781,9.767-11.675c0.364-0.435,0.514-1.085,0.4-1.736
						c-1.018-5.829-2.013-11.697-2.986-17.606c-0.273-1.666,1.06-2.809,2.257-1.942c4.255,3.08,8.555,6.081,12.897,9.008
						c0.486,0.328,1.052,0.353,1.513,0.074c4.128-2.509,8.264-5.033,12.408-7.573C463.58,261.686,465.043,262.956,464.888,264.549z"
						/>
				</g>
				<g>
					<path fill="#C3EAFC" d="M532.058,314.203c-0.378,5.361-0.749,10.711-1.114,16.051c-0.041,0.597,0.207,1.182,0.661,1.562
						c4.069,3.404,8.169,6.755,12.297,10.056c1.162,0.928,0.773,2.792-0.662,3.156c-5.093,1.29-10.171,2.553-15.233,3.789
						c-0.567,0.138-1.024,0.552-1.229,1.11c-1.822,4.978-3.642,9.954-5.462,14.928c-0.513,1.402-2.385,1.578-3.165,0.293
						c-2.773-4.557-5.523-9.158-8.247-13.802c-0.304-0.519-0.831-0.855-1.408-0.9c-5.158-0.392-10.291-0.829-15.397-1.311
						c-1.438-0.135-2.158-1.971-1.223-3.101c3.324-4.011,6.65-8.025,9.976-12.04c0.373-0.449,0.505-1.071,0.359-1.666
						c-1.312-5.314-2.607-10.66-3.884-16.037c-0.359-1.514,1.021-2.742,2.337-2.081c4.674,2.347,9.384,4.632,14.126,6.861
						c0.53,0.25,1.136,0.208,1.616-0.106c4.306-2.821,8.618-5.653,12.937-8.496C530.56,311.671,532.164,312.694,532.058,314.203z"/>
				</g>
				<g>
					<path fill="#C3EAFC" d="M604.54,354.576c-0.251,5.14-0.498,10.273-0.74,15.398c-0.028,0.573,0.247,1.112,0.732,1.438
						c4.342,2.928,8.705,5.82,13.086,8.678c1.235,0.804,0.872,2.618-0.614,3.072c-5.275,1.608-10.54,3.2-15.795,4.772
						c-0.586,0.175-1.058,0.607-1.256,1.155c-1.776,4.898-3.551,9.795-5.326,14.692c-0.5,1.378-2.45,1.689-3.297,0.524
						c-3.012-4.141-6.008-8.31-8.986-12.51c-0.332-0.469-0.893-0.747-1.499-0.74c-5.414,0.055-10.81,0.079-16.188,0.07
						c-1.515-0.003-2.325-1.681-1.374-2.836c3.377-4.103,6.754-8.207,10.133-12.313c0.379-0.46,0.501-1.063,0.329-1.613
						c-1.532-4.931-3.052-9.883-4.558-14.858c-0.425-1.4,0.992-2.693,2.397-2.187c4.991,1.793,10.008,3.543,15.047,5.252
						c0.563,0.191,1.198,0.101,1.693-0.24c4.438-3.052,8.881-6.111,13.328-9.179C602.904,352.286,604.611,353.131,604.54,354.576z"
						/>
				</g>
				<g>
					<path fill="#C3EAFC" d="M680.704,388.518c-0.17,4.999-0.338,9.993-0.504,14.984c-0.018,0.557,0.271,1.066,0.776,1.361
						c4.512,2.631,9.035,5.242,13.568,7.837c1.277,0.73,0.93,2.516-0.585,3.022c-5.384,1.798-10.762,3.587-16.135,5.366
						c-0.599,0.199-1.077,0.642-1.272,1.184c-1.748,4.85-3.496,9.698-5.243,14.546c-0.492,1.366-2.489,1.758-3.378,0.665
						c-3.159-3.885-6.309-7.784-9.45-11.701c-0.351-0.437-0.933-0.675-1.557-0.639c-5.578,0.342-11.146,0.666-16.703,0.971
						c-1.565,0.086-2.436-1.488-1.475-2.66c3.411-4.164,6.824-8.329,10.236-12.494c0.382-0.466,0.497-1.057,0.31-1.579
						c-1.678-4.676-3.349-9.365-5.011-14.068c-0.468-1.324,0.972-2.659,2.438-2.258c5.205,1.419,10.426,2.812,15.66,4.18
						c0.586,0.152,1.237,0.03,1.743-0.328c4.525-3.203,9.052-6.41,13.582-9.621C678.977,386.383,680.752,387.111,680.704,388.518z"
						/>
				</g>
			</g>
			<g>
				<g>
					<path fill="#C3EAFC" d="M423.968,336.034c-0.55,5.663-1.092,11.311-1.626,16.944c-0.059,0.63,0.152,1.279,0.564,1.732
						c3.694,4.06,7.428,8.05,11.2,11.973c1.063,1.104,0.632,3.037-0.729,3.274c-4.836,0.841-9.652,1.648-14.447,2.417
						c-0.537,0.087-0.982,0.476-1.193,1.046c-1.885,5.088-3.768,10.174-5.65,15.258c-0.531,1.431-2.295,1.42-2.982-0.026
						c-2.443-5.135-4.855-10.326-7.233-15.574c-0.267-0.586-0.745-1.004-1.284-1.116c-4.811-0.999-9.588-2.057-14.33-3.174
						c-1.335-0.314-1.936-2.361-1.019-3.456c3.255-3.889,6.51-7.781,9.768-11.675c0.363-0.435,0.513-1.084,0.399-1.736
						c-1.018-5.829-2.013-11.697-2.986-17.606c-0.274-1.666,1.059-2.809,2.256-1.942c4.255,3.079,8.554,6.081,12.897,9.008
						c0.487,0.326,1.052,0.354,1.513,0.074c4.128-2.509,8.264-5.033,12.408-7.573C422.66,333.17,424.122,334.442,423.968,336.034z"
						/>
				</g>
				<g>
					<path fill="#C3EAFC" d="M491.138,385.688c-0.378,5.361-0.749,10.711-1.114,16.051c-0.041,0.597,0.207,1.182,0.661,1.562
						c4.069,3.405,8.169,6.755,12.297,10.056c1.162,0.929,0.772,2.793-0.662,3.156c-5.093,1.29-10.17,2.554-15.233,3.789
						c-0.567,0.138-1.025,0.553-1.229,1.11c-1.822,4.978-3.642,9.954-5.462,14.929c-0.513,1.402-2.385,1.577-3.165,0.293
						c-2.773-4.558-5.523-9.158-8.247-13.802c-0.305-0.518-0.831-0.856-1.408-0.899c-5.158-0.392-10.291-0.828-15.397-1.312
						c-1.437-0.135-2.157-1.973-1.222-3.101c3.324-4.011,6.65-8.025,9.976-12.04c0.373-0.449,0.505-1.07,0.36-1.666
						c-1.312-5.315-2.607-10.66-3.884-16.037c-0.359-1.516,1.021-2.743,2.336-2.082c4.675,2.347,9.384,4.632,14.126,6.861
						c0.529,0.25,1.135,0.208,1.616-0.106c4.305-2.821,8.618-5.652,12.937-8.495C489.641,383.155,491.244,384.18,491.138,385.688z"
						/>
				</g>
				<g>
					<path fill="#C3EAFC" d="M563.62,426.062c-0.251,5.14-0.497,10.272-0.74,15.397c-0.028,0.574,0.247,1.11,0.732,1.439
						c4.342,2.928,8.705,5.819,13.086,8.678c1.235,0.804,0.872,2.617-0.614,3.072c-5.275,1.609-10.54,3.2-15.795,4.772
						c-0.587,0.177-1.057,0.607-1.256,1.155c-1.776,4.898-3.551,9.795-5.326,14.692c-0.5,1.378-2.45,1.689-3.297,0.524
						c-3.012-4.141-6.008-8.311-8.986-12.51c-0.331-0.47-0.893-0.748-1.499-0.741c-5.414,0.055-10.81,0.079-16.188,0.07
						c-1.515-0.003-2.326-1.68-1.374-2.836c3.377-4.103,6.755-8.207,10.133-12.313c0.378-0.458,0.5-1.063,0.329-1.614
						c-1.532-4.93-3.052-9.882-4.559-14.858c-0.424-1.401,0.991-2.693,2.397-2.187c4.991,1.793,10.008,3.543,15.047,5.252
						c0.563,0.191,1.197,0.102,1.693-0.24c4.438-3.051,8.881-6.111,13.328-9.178C561.983,423.772,563.691,424.616,563.62,426.062z"
						/>
				</g>
				<g>
					<path fill="#C3EAFC" d="M639.784,460.003c-0.17,4.999-0.339,9.994-0.504,14.985c-0.018,0.558,0.271,1.067,0.776,1.361
						c4.512,2.631,9.035,5.242,13.568,7.837c1.276,0.731,0.931,2.515-0.585,3.022c-5.384,1.798-10.762,3.587-16.135,5.366
						c-0.6,0.2-1.076,0.641-1.272,1.183c-1.748,4.849-3.495,9.698-5.243,14.546c-0.492,1.365-2.489,1.759-3.378,0.665
						c-3.159-3.885-6.309-7.784-9.449-11.701c-0.351-0.438-0.933-0.676-1.557-0.639c-5.578,0.342-11.147,0.666-16.704,0.971
						c-1.565,0.087-2.436-1.487-1.475-2.66c3.411-4.164,6.824-8.329,10.236-12.494c0.382-0.465,0.498-1.057,0.31-1.579
						c-1.678-4.676-3.349-9.365-5.011-14.068c-0.468-1.325,0.972-2.659,2.438-2.258c5.205,1.419,10.426,2.812,15.661,4.18
						c0.585,0.153,1.237,0.03,1.743-0.328c4.524-3.203,9.052-6.41,13.581-9.621C638.057,457.868,639.832,458.597,639.784,460.003z"
						/>
				</g>
			</g>
			<g>
				<g>
					<path fill="#C3EAFC" d="M383.047,407.52c-0.55,5.662-1.092,11.311-1.626,16.944c-0.059,0.629,0.152,1.28,0.564,1.732
						c3.694,4.06,7.428,8.05,11.2,11.973c1.063,1.104,0.633,3.035-0.729,3.274c-4.836,0.841-9.652,1.648-14.447,2.417
						c-0.537,0.087-0.982,0.476-1.193,1.046c-1.884,5.088-3.768,10.174-5.65,15.258c-0.53,1.43-2.295,1.42-2.982-0.027
						c-2.444-5.135-4.854-10.326-7.233-15.573c-0.267-0.586-0.745-1.003-1.284-1.116c-4.81-1-9.588-2.057-14.33-3.174
						c-1.336-0.313-1.937-2.359-1.019-3.456c3.254-3.889,6.51-7.781,9.767-11.675c0.364-0.435,0.514-1.086,0.399-1.736
						c-1.018-5.829-2.013-11.697-2.985-17.606c-0.274-1.665,1.059-2.808,2.257-1.942c4.255,3.079,8.554,6.081,12.897,9.008
						c0.487,0.326,1.051,0.356,1.513,0.074c4.127-2.51,8.264-5.034,12.408-7.573C381.74,404.655,383.203,405.926,383.047,407.52z"/>
				</g>
				<g>
					<path fill="#C3EAFC" d="M450.218,457.173c-0.378,5.361-0.749,10.711-1.114,16.051c-0.041,0.597,0.206,1.184,0.661,1.562
						c4.069,3.405,8.169,6.755,12.297,10.056c1.162,0.929,0.772,2.793-0.662,3.156c-5.093,1.289-10.171,2.553-15.233,3.789
						c-0.567,0.138-1.025,0.553-1.229,1.109c-1.822,4.978-3.642,9.954-5.462,14.929c-0.512,1.401-2.386,1.579-3.165,0.293
						c-2.773-4.557-5.523-9.157-8.247-13.802c-0.304-0.52-0.831-0.854-1.408-0.899c-5.158-0.392-10.291-0.829-15.397-1.312
						c-1.437-0.136-2.158-1.971-1.223-3.101c3.325-4.012,6.65-8.025,9.976-12.04c0.373-0.449,0.505-1.07,0.36-1.666
						c-1.312-5.315-2.607-10.66-3.884-16.037c-0.359-1.515,1.02-2.742,2.336-2.081c4.674,2.347,9.384,4.632,14.126,6.861
						c0.53,0.25,1.134,0.21,1.616-0.106c4.306-2.821,8.618-5.653,12.937-8.496C448.72,454.641,450.325,455.663,450.218,457.173z"/>
				</g>
				<g>
					<path fill="#C3EAFC" d="M522.7,497.547c-0.251,5.14-0.498,10.272-0.74,15.398c-0.027,0.572,0.247,1.111,0.732,1.438
						c4.342,2.928,8.705,5.82,13.086,8.678c1.233,0.807,0.872,2.618-0.614,3.073c-5.275,1.608-10.541,3.2-15.796,4.772
						c-0.587,0.176-1.057,0.606-1.255,1.155c-1.776,4.899-3.551,9.796-5.326,14.692c-0.501,1.38-2.45,1.689-3.297,0.524
						c-3.012-4.141-6.008-8.31-8.986-12.51c-0.332-0.469-0.893-0.747-1.499-0.741c-5.414,0.055-10.81,0.079-16.188,0.07
						c-1.515-0.001-2.326-1.68-1.374-2.836c3.377-4.103,6.754-8.207,10.132-12.313c0.379-0.459,0.5-1.062,0.33-1.613
						c-1.532-4.93-3.052-9.883-4.558-14.858c-0.423-1.404,0.99-2.69,2.397-2.187c4.991,1.793,10.007,3.543,15.047,5.252
						c0.563,0.191,1.198,0.101,1.693-0.241c4.438-3.052,8.881-6.111,13.328-9.178C521.063,495.257,522.771,496.101,522.7,497.547z"
						/>
				</g>
				<g>
					<path fill="#C3EAFC" d="M598.864,531.489c-0.17,4.999-0.339,9.994-0.504,14.984c-0.018,0.558,0.272,1.066,0.776,1.361
						c4.512,2.631,9.035,5.242,13.567,7.836c1.277,0.73,0.93,2.517-0.585,3.022c-5.384,1.798-10.762,3.586-16.135,5.366
						c-0.599,0.198-1.077,0.641-1.271,1.184c-1.748,4.849-3.496,9.698-5.243,14.546c-0.492,1.365-2.49,1.759-3.378,0.665
						c-3.159-3.885-6.31-7.784-9.45-11.701c-0.352-0.437-0.933-0.677-1.557-0.639c-5.578,0.342-11.146,0.666-16.703,0.971
						c-1.565,0.087-2.436-1.487-1.475-2.659c3.411-4.164,6.824-8.329,10.236-12.494c0.382-0.465,0.497-1.056,0.31-1.579
						c-1.678-4.676-3.349-9.365-5.011-14.068c-0.467-1.326,0.972-2.66,2.438-2.258c5.205,1.419,10.426,2.811,15.661,4.18
						c0.585,0.152,1.237,0.029,1.743-0.328c4.524-3.203,9.051-6.41,13.581-9.621C597.137,529.353,598.912,530.081,598.864,531.489z"
						/>
				</g>
			</g>
		</g>
	</g>
	
		<rect x="237.544" y="135.451" transform="matrix(-0.871 -0.4914 0.4914 -0.871 203.9227 1091.9104)" fill="#14327D" width="15.603" height="767.453"/>
	<path opacity="0.17" fill="#2B2B2B" d="M517.7,819.659c-120.679-45.466-239.139-94.783-328.894-194.237
		c11.862-20.75,23.751-41.504,35.64-62.257c11.874-20.765,23.751-41.504,35.625-62.269c11.889-20.753,23.777-41.507,35.652-62.272
		c47.528-83.011,95.042-166.034,142.571-249.044c86.087,95.394,198.585,144.658,314.11,188.65
		c64.595,24.588,130.131,47.526,192.519,75.95C849.29,497.122,631.979,607.587,517.7,819.659z"/>
</g>
</svg>
